# xmcd
#
# Track frame offsets:
#	150
#	21270
#	34500
#	47506
#	55921
#	69269
#	80017
#	94698
#	108905
#	118803
#	130736
#	151907
#	163723
#	174797
#	186721
#	198628
#
# Disc length: 2793 seconds
#
# Revision: 1
# Processed by: cddbd v1.5.2PL0 Copyright (c) Steve Scherf et al.
# Submitted via: audiograbber 1.83.01
#
DISCID=d10ae710
DTITLE=Various Artist - Back Home Again
DYEAR=1900
DGENRE=Country
TTITLE0=John Denver - Back Home Again
TTITLE1=Glenn Campbell - Southern Nights
TTITLE2=Kenny Rogers - Ruby Dont Take Your Love To Town
TTITLE3=Johnny Cash - Country Boy
TTITLE4=Dean Martin - Crying Time
TTITLE5=Tammy Wynette - Singing My Song
TTITLE6=Bellamy Brothers - Let Your Love Flow
TTITLE7=Gene Pitney - Somewhere In The Country
TTITLE8=Johnny Cash - Ballad Of A Teenage Queen
TTITLE9=Jack Green - There Goes My Everything
TTITLE10=John Denver - Rocky Mountain High
TTITLE11=Dolly Parton - Making Believe
TTITLE12=Roger Miller - King Of The Road
TTITLE13=Guy Mitchell - Heartaches By The Number
TTITLE14=Frankie Laine - High Noon (Do Not Forsake Me)
TTITLE15=Billy Joe Spears - If You Want Me
EXTD=
EXTT0=
EXTT1=
EXTT2=
EXTT3=
EXTT4=
EXTT5=
EXTT6=
EXTT7=
EXTT8=
EXTT9=
EXTT10=
EXTT11=
EXTT12=
EXTT13=
EXTT14=
EXTT15=
PLAYORDER=
